# xmcd
#
# Track frame offsets:
#	150
#	13496
#	44517
#	65098
#	96967
#	116521
#	134590
#	153281
#	184032
#	200271
#	227070
#	246541
#	274060
#
# Disc length: 3878 seconds
#
# Revision: 1
# Processed by: cddbd v1.4PL0 Copyright (c) Steve Scherf et al.
# Submitted via: audiograbber 1.82.01
#
DISCID=c20f240d
DTITLE=Samira Toufic - The Best Of
DYEAR=1900
DGENRE=
TTITLE0=Balla Tsoubo Hal Kahwa
TTITLE1=Ya Hala Bil dayf
TTITLE2=Yomein Wi Thateth
TTITLE3=Bee'a El Jamal Ya Ali
TTITLE4=Dahab Ma Badi
TTITLE5=Shababina
TTITLE6=Ya Boul Gedila
TTITLE7=Ya Marhaba
TTITLE8=El Khayl Ala El Maya
TTITLE9=Hobbak Murr
TTITLE10=Makdar Aoulak
TTITLE11=Ya Badaouiya 
TTITLE12=Ehna El Habayeb
EXTD=
EXTT0=
EXTT1=
EXTT2=
EXTT3=
EXTT4=
EXTT5=
EXTT6=
EXTT7=
EXTT8=
EXTT9=
EXTT10=
EXTT11=
EXTT12=
PLAYORDER=
